# xmcd
# Track frame offsets:
# 150
# 38317
# 52335
# 64260
# 74825
# 88737
# 103722
# 115990
# 125762
#
# Disc length: 1807 seconds
# Revision: 4
# Processed by: cddbd v1.5.2PL0 Copyright (c) Steve Scherf et al.
# Submitted via: VisiTrax 2.11.3.279 - For more info visit www.synapsa.com
#
DISCID=89070d09
DTITLE=Johnny Cash - Blood, Sweat And Tears
DYEAR=1963
DGENRE=Country
TTITLE0=The Legend Of John Henry's Hammer
TTITLE1=Tell Him I'm Gone
TTITLE2=Another Man Done Gone
TTITLE3=Busted
TTITLE4=Casey Jones
TTITLE5=Nine Pound Hammer
TTITLE6=Chain Gang
TTITLE7=Waiting For A Train
TTITLE8=Roughneck
EXTD=Columbia - Legacy
EXTT0=
EXTT1=
EXTT2=
EXTT3=
EXTT4=
EXTT5=
EXTT6=
EXTT7=
EXTT8=
PLAYORDER=
